<svg xmlns="http://www.w3.org/2000/svg" width="375" viewBox="0 0 375 375" height="375" version="1.0"><defs><clipPath id="a"><path d="M 78.222656 146.855469 L 115 146.855469 L 115 184 L 78.222656 184 Z M 78.222656 146.855469"/></clipPath><clipPath id="b"><path d="M 122 146.855469 L 159.222656 146.855469 L 159.222656 184 L 122 184 Z M 122 146.855469"/></clipPath><clipPath id="c"><path d="M 78.222656 191 L 115 191 L 115 227.855469 L 78.222656 227.855469 Z M 78.222656 191"/></clipPath><clipPath id="d"><path d="M 122 191 L 159.222656 191 L 159.222656 227.855469 L 122 227.855469 Z M 122 191"/></clipPath></defs><path fill="#004AAD" d="M 132.109375 209.96875 C 133.351562 211.5 135.210938 212.382812 137.214844 212.382812 C 140.855469 212.382812 143.816406 209.425781 143.816406 205.796875 C 143.816406 203.796875 142.933594 201.941406 141.398438 200.703125 C 137.324219 197.425781 134.988281 192.558594 134.988281 187.347656 C 134.988281 182.132812 137.324219 177.265625 141.398438 173.988281 C 142.933594 172.753906 143.816406 170.898438 143.816406 168.898438 C 143.816406 165.265625 140.855469 162.3125 137.214844 162.3125 C 135.210938 162.3125 133.351562 163.191406 132.109375 164.726562 C 128.824219 168.789062 123.945312 171.117188 118.722656 171.117188 C 113.496094 171.117188 108.617188 168.789062 105.332031 164.726562 C 104.09375 163.191406 102.230469 162.3125 100.226562 162.3125 C 96.585938 162.3125 93.625 165.265625 93.625 168.898438 C 93.625 170.898438 94.507812 172.753906 96.042969 173.988281 C 100.117188 177.265625 102.453125 182.132812 102.453125 187.347656 C 102.453125 192.558594 100.117188 197.425781 96.042969 200.703125 C 94.507812 201.941406 93.625 203.796875 93.625 205.796875 C 93.625 209.425781 96.585938 212.382812 100.226562 212.382812 C 102.230469 212.382812 104.09375 211.5 105.332031 209.96875 C 108.617188 205.90625 113.496094 203.574219 118.722656 203.574219 C 123.945312 203.574219 128.824219 205.90625 132.109375 209.96875 Z M 103.339844 208.367188 C 102.589844 209.296875 101.453125 209.832031 100.226562 209.832031 C 97.996094 209.832031 96.179688 208.019531 96.179688 205.796875 C 96.179688 204.570312 96.714844 203.4375 97.648438 202.6875 C 102.324219 198.925781 105.007812 193.332031 105.007812 187.347656 C 105.007812 181.359375 102.324219 175.769531 97.648438 172.003906 C 96.714844 171.253906 96.179688 170.121094 96.179688 168.898438 C 96.179688 166.671875 97.996094 164.863281 100.226562 164.863281 C 101.453125 164.863281 102.589844 165.394531 103.339844 166.324219 C 107.113281 170.992188 112.71875 173.667969 118.722656 173.667969 C 124.722656 173.667969 130.328125 170.992188 134.101562 166.324219 C 134.851562 165.394531 135.988281 164.863281 137.214844 164.863281 C 139.445312 164.863281 141.261719 166.671875 141.261719 168.898438 C 141.261719 170.121094 140.726562 171.253906 139.792969 172.003906 C 135.117188 175.769531 132.433594 181.359375 132.433594 187.347656 C 132.433594 193.332031 135.117188 198.925781 139.792969 202.6875 C 140.726562 203.4375 141.261719 204.570312 141.261719 205.796875 C 141.261719 208.019531 139.445312 209.832031 137.214844 209.832031 C 135.988281 209.832031 134.851562 209.296875 134.101562 208.367188 C 130.328125 203.703125 124.722656 201.027344 118.722656 201.027344 C 112.71875 201.027344 107.113281 203.703125 103.339844 208.367188 Z M 103.339844 208.367188"/><g clip-path="url(#a)"><path fill="#004AAD" d="M 96.566406 183.519531 C 97.273438 183.519531 97.847656 182.949219 97.847656 182.246094 C 97.847656 181.542969 97.273438 180.972656 96.566406 180.972656 C 87.859375 180.972656 80.773438 173.902344 80.773438 165.214844 C 80.773438 156.527344 87.859375 149.457031 96.566406 149.457031 C 105.277344 149.457031 112.363281 156.527344 112.363281 165.214844 C 112.363281 165.917969 112.933594 166.488281 113.640625 166.488281 C 114.347656 166.488281 114.917969 165.917969 114.917969 165.214844 C 114.917969 155.121094 106.6875 146.910156 96.566406 146.910156 C 86.449219 146.910156 78.21875 155.121094 78.21875 165.214844 C 78.21875 175.308594 86.449219 183.519531 96.566406 183.519531 Z M 96.566406 183.519531"/></g><g clip-path="url(#b)"><path fill="#004AAD" d="M 123.800781 166.488281 C 124.507812 166.488281 125.078125 165.917969 125.078125 165.214844 C 125.078125 156.527344 132.164062 149.457031 140.875 149.457031 C 149.582031 149.457031 156.667969 156.527344 156.667969 165.214844 C 156.667969 173.902344 149.582031 180.972656 140.875 180.972656 C 140.167969 180.972656 139.59375 181.542969 139.59375 182.246094 C 139.59375 182.949219 140.167969 183.519531 140.875 183.519531 C 150.992188 183.519531 159.226562 175.308594 159.226562 165.214844 C 159.226562 155.121094 150.992188 146.910156 140.875 146.910156 C 130.753906 146.910156 122.523438 155.121094 122.523438 165.214844 C 122.523438 165.917969 123.09375 166.488281 123.800781 166.488281 Z M 123.800781 166.488281"/></g><g clip-path="url(#c)"><path fill="#004AAD" d="M 113.640625 208.203125 C 112.933594 208.203125 112.363281 208.773438 112.363281 209.480469 C 112.363281 218.167969 105.277344 225.234375 96.566406 225.234375 C 87.859375 225.234375 80.773438 218.167969 80.773438 209.480469 C 80.773438 200.789062 87.859375 193.722656 96.566406 193.722656 C 97.273438 193.722656 97.847656 193.152344 97.847656 192.449219 C 97.847656 191.742188 97.273438 191.171875 96.566406 191.171875 C 86.449219 191.171875 78.21875 199.382812 78.21875 209.480469 C 78.21875 219.574219 86.449219 227.785156 96.566406 227.785156 C 106.6875 227.785156 114.917969 219.574219 114.917969 209.480469 C 114.917969 208.773438 114.347656 208.203125 113.640625 208.203125 Z M 113.640625 208.203125"/></g><g clip-path="url(#d)"><path fill="#004AAD" d="M 140.875 191.171875 C 140.167969 191.171875 139.59375 191.742188 139.59375 192.449219 C 139.59375 193.152344 140.167969 193.722656 140.875 193.722656 C 149.582031 193.722656 156.667969 200.789062 156.667969 209.480469 C 156.667969 218.167969 149.582031 225.234375 140.875 225.234375 C 132.164062 225.234375 125.078125 218.167969 125.078125 209.480469 C 125.078125 208.773438 124.507812 208.203125 123.800781 208.203125 C 123.09375 208.203125 122.523438 208.773438 122.523438 209.480469 C 122.523438 219.574219 130.753906 227.785156 140.875 227.785156 C 150.992188 227.785156 159.226562 219.574219 159.226562 209.480469 C 159.226562 199.382812 150.992188 191.171875 140.875 191.171875 Z M 140.875 191.171875"/></g><path fill="#004AAD" d="M 121.609375 186.070312 L 115.832031 186.070312 C 115.125 186.070312 114.554688 186.644531 114.554688 187.347656 C 114.554688 188.050781 115.125 188.621094 115.832031 188.621094 L 121.609375 188.621094 C 122.316406 188.621094 122.886719 188.050781 122.886719 187.347656 C 122.886719 186.644531 122.316406 186.070312 121.609375 186.070312 Z M 121.609375 186.070312"/><g><g><g><path d="M 15.292969 0 L 23.035156 0 L 15.070312 -22.398438 L 7.613281 -22.398438 L -0.320312 0 L 7.328125 0 L 8.285156 -3.679688 L 14.300781 -3.679688 Z M 9.664062 -8.796875 L 11.261719 -14.941406 L 12.925781 -8.796875 Z M 9.664062 -8.796875" transform="translate(171.136 197.625)"/></g></g></g><g><g><g><path d="M 1.695312 0 L 17.246094 0 L 18.300781 -6.335938 L 9.117188 -6.335938 L 9.117188 -22.398438 L 1.695312 -22.398438 Z M 1.695312 0" transform="translate(193.914 197.625)"/></g></g></g><g><g><g><path d="M 1.695312 0 L 17.246094 0 L 18.300781 -6.335938 L 9.117188 -6.335938 L 9.117188 -22.398438 L 1.695312 -22.398438 Z M 1.695312 0" transform="translate(212.63 197.625)"/></g></g></g><g><g><g><path d="M 15.292969 0 L 23.035156 0 L 15.070312 -22.398438 L 7.613281 -22.398438 L -0.320312 0 L 7.328125 0 L 8.285156 -3.679688 L 14.300781 -3.679688 Z M 9.664062 -8.796875 L 11.261719 -14.941406 L 12.925781 -8.796875 Z M 9.664062 -8.796875" transform="translate(231.345 197.625)"/></g></g></g><g><g><g><path d="M 11.519531 0.542969 C 14.367188 0.542969 17.46875 -0.191406 19.003906 -0.734375 L 19.003906 -12.316406 L 12.511719 -12.316406 L 12.511719 -5.632812 L 12.0625 -5.632812 C 9.566406 -5.632812 8.480469 -7.136719 8.480469 -11.199219 C 8.480469 -15.230469 9.789062 -16.734375 13.023438 -16.734375 C 15.324219 -16.734375 17.4375 -16.03125 18.363281 -15.484375 L 17.980469 -21.757812 C 16.828125 -22.269531 14.269531 -22.941406 11.519531 -22.941406 C 4.351562 -22.941406 0.863281 -18.910156 0.863281 -11.199219 C 0.863281 -3.488281 4.351562 0.542969 11.519531 0.542969 Z M 11.519531 0.542969" transform="translate(254.123 197.625)"/></g></g></g><g><g><g><path d="M 1.695312 0 L 9.183594 0 L 9.183594 -22.398438 L 1.695312 -22.398438 Z M 1.695312 0" transform="translate(274.438 197.625)"/></g></g></g></svg>